# xmcd CD database file
#
# Track frame offsets:
#	150
#	26030
#	42155
#	64700
#	101889
#	118235
#	156359
#	173314
#	197104
#	234129
#	261688
#	299501
#
# Disc length: 4511 seconds
#
# Revision: 2
# Processed by: cddbd v1.5.2PL0 Copyright (c) Steve Scherf et al.
# Submitted via: CDex 1.81
#
DISCID=ae119d0c
DTITLE=Bunnet, Jane [CDN-05-Radio Guantanamo-Gitmo Blues Project--jzz) - Radio Guantanamo: Guantanamo Blues Project Vol 1
DYEAR=2005
DGENRE=Jazz
TTITLE0=Changui Para Alfredo
TTITLE1=Give Me One Dollar
TTITLE2=Kiriba
TTITLE3=Guantanamo Blues (Part 1)
TTITLE4=Loma De Chivo (Part 2)
TTITLE5=You Have Changed My Life
TTITLE6=No Money No Chica
TTITLE7=Conga Blue
TTITLE8=New Orleans Under Water (Nueva Orleans Bajo Agua)
TTITLE9=Yemaya
TTITLE10=Vamos Para Guaso Compay (Lets Go To Guantanamo Man)
TTITLE11=Data Track
EXTD=YEAR: 2005
EXTT0=
EXTT1=
EXTT2=
EXTT3=
EXTT4=
EXTT5=
EXTT6=
EXTT7=
EXTT8=
EXTT9=
EXTT10=
EXTT11=
PLAYORDER=
